<svg width="64" height="64" viewBox="0 0 64 64" fill="none" xmlns="http://www.w3.org/2000/svg">
<path d="M50.5 30.5H35.5V15.5C35.5 14.837 35.2366 14.2011 34.7678 13.7322C34.2989 13.2634 33.663 13 33 13C32.337 13 31.7011 13.2634 31.2322 13.7322C30.7634 14.2011 30.5 14.837 30.5 15.5V30.5H15.5C14.837 30.5 14.2011 30.7634 13.7322 31.2322C13.2634 31.7011 13 32.337 13 33C13 33.663 13.2634 34.2989 13.7322 34.7678C14.2011 35.2366 14.837 35.5 15.5 35.5H30.5V50.5C30.5 51.163 30.7634 51.7989 31.2322 52.2678C31.7011 52.7366 32.337 53 33 53C33.663 53 34.2989 52.7366 34.7678 52.2678C35.2366 51.7989 35.5 51.163 35.5 50.5V35.5H50.5C51.163 35.5 51.7989 35.2366 52.2678 34.7678C52.7366 34.2989 53 33.663 53 33C53 32.337 52.7366 31.7011 52.2678 31.2322C51.7989 30.7634 51.163 30.5 50.5 30.5Z" fill="white"/>
</svg>
