<svg width="65" height="65" viewBox="0 0 65 65" fill="none" xmlns="http://www.w3.org/2000/svg">
<path d="M32.13 14.28C33.6087 14.28 34.8075 15.4788 34.8075 16.9575V29.4525H47.3025C48.7812 29.4525 49.98 30.6513 49.98 32.13C49.98 33.6087 48.7812 34.8075 47.3025 34.8075H34.8075V47.3025C34.8075 48.7812 33.6087 49.98 32.13 49.98C30.6513 49.98 29.4525 48.7812 29.4525 47.3025V34.8075H16.9575C15.4788 34.8075 14.28 33.6087 14.28 32.13C14.28 30.6513 15.4788 29.4525 16.9575 29.4525H29.4525V16.9575C29.4525 15.4788 30.6513 14.28 32.13 14.28Z" fill="#0070FF"/>
<path d="M0 11.6025C0 5.1946 5.1946 0 11.6025 0H52.6575C59.0653 0 64.26 5.1946 64.26 11.6025V52.6575C64.26 59.0653 59.0653 64.26 52.6575 64.26H11.6025C5.1946 64.26 0 59.0653 0 52.6575V11.6025ZM11.6025 5.355C8.1521 5.355 5.355 8.1521 5.355 11.6025V52.6575C5.355 56.1079 8.1521 58.905 11.6025 58.905H52.6575C56.1079 58.905 58.905 56.1079 58.905 52.6575V11.6025C58.905 8.1521 56.1079 5.355 52.6575 5.355H11.6025Z" fill="#0070FF"/>
</svg>
