<svg width="129" height="129" viewBox="0 0 129 129" fill="none" xmlns="http://www.w3.org/2000/svg">
<path d="M53.55 101.745C52.2988 101.747 51.0863 101.312 50.1228 100.513C49.5806 100.064 49.1324 99.5117 48.8038 98.8887C48.4753 98.2657 48.2729 97.5839 48.2082 96.8825C48.1436 96.1812 48.2179 95.4739 48.427 94.8013C48.6361 94.1287 48.9758 93.504 49.4267 92.9628L73.4171 64.26L50.2835 35.5037C49.8387 34.9559 49.5065 34.3257 49.306 33.6491C49.1056 32.9726 49.0408 32.2631 49.1155 31.5614C49.1901 30.8598 49.4027 30.1798 49.741 29.5606C50.0793 28.9413 50.5366 28.395 51.0867 27.9531C51.6408 27.4656 52.2896 27.0979 52.9925 26.8731C53.6955 26.6482 54.4373 26.5711 55.1714 26.6465C55.9055 26.7219 56.6161 26.9483 57.2586 27.3114C57.9012 27.6744 58.4617 28.1664 58.905 28.7564L84.7697 60.8864C85.5573 61.8446 85.9879 63.0465 85.9879 64.2868C85.9879 65.5272 85.5573 66.7291 84.7697 67.6872L57.9947 99.8172C57.4575 100.465 56.7751 100.978 56.0028 101.313C55.2306 101.647 54.3903 101.796 53.55 101.745Z" fill="black"/>
</svg>
