<svg width="58" height="58" viewBox="0 0 58 58" fill="none" xmlns="http://www.w3.org/2000/svg">
<path d="M2.84344 49.7347V8.96692C2.84344 5.75043 5.45093 3.14294 8.66742 3.14294H41.199C42.7435 3.14294 44.2248 3.75653 45.3171 4.84876L53.5534 13.0851C54.6457 14.1773 55.2592 15.6586 55.2592 17.2033V49.7347C55.2592 52.9513 52.6518 55.5587 49.4352 55.5587H8.66742C5.45093 55.5587 2.84344 52.9513 2.84344 49.7347Z" stroke="black" stroke-width="4.36798"/>
<path d="M19.1506 20.6149H38.9521C39.9171 20.6149 40.6993 19.8326 40.6993 18.8677V4.89014C40.6993 3.92519 39.9171 3.14294 38.9521 3.14294H19.1506C18.1856 3.14294 17.4034 3.92519 17.4034 4.89014V18.8677C17.4034 19.8326 18.1856 20.6149 19.1506 20.6149Z" stroke="black" stroke-width="4.36798"/>
<path d="M11.5794 34.01V55.5587H46.5233V34.01C46.5233 33.045 45.7411 32.2628 44.7761 32.2628H13.3266C12.3617 32.2628 11.5794 33.045 11.5794 34.01Z" stroke="black" stroke-width="4.36798"/>
</svg>
