<svg width="65" height="65" viewBox="0 0 65 65" fill="none" xmlns="http://www.w3.org/2000/svg">
<path d="M0.993822 63.0813L1.00559 63.093C1.31773 63.4075 1.68894 63.6571 2.09789 63.8276C2.50683 63.998 2.94544 64.086 3.3885 64.0864C3.7613 64.0861 4.13154 64.0246 4.48443 63.9044L23.6978 57.3867L60.5671 20.5175C62.821 18.2634 64.0872 15.2062 64.087 12.0186C64.0869 8.83089 62.8205 5.77385 60.5664 3.51993C58.3123 1.26602 55.2551 -0.000139544 52.0674 1.15351e-08C48.8798 0.000139567 45.8227 1.26657 43.5688 3.52068L6.69956 40.3899L0.182427 59.6028C-0.0228623 60.2003 -0.0556303 60.8435 0.0878806 61.4587C0.231392 62.074 0.545372 62.6363 0.993822 63.0813ZM46.6305 6.58211C48.0745 5.14919 50.0274 4.34683 52.0616 4.35074C54.0959 4.35464 56.0457 5.1645 57.4842 6.60296C58.9226 8.04142 59.7324 9.99126 59.7362 12.0255C59.7401 14.0598 58.9377 16.0127 57.5047 17.4566L52.6564 22.3049L41.7819 11.4305L46.6305 6.58211ZM10.4758 42.7367L38.7205 14.4919L49.595 25.3664L21.3501 53.6111L4.89303 59.1938L10.4758 42.7367Z" fill="black"/>
</svg>
